<svg viewBox="0 0 24 24" xmlns="http://www.w3.org/2000/svg" aria-hidden="true">
    <path
        fill="currentColor"
        d="M12 .297c-6.63 0-12 5.373-12 12 0 5.302 3.438 9.8 8.205 11.387.6.113.82-.258.82-.577 0-.285-.01-1.04-.015-2.04-3.338.724-4.042-1.61-4.042-1.61-.546-1.386-1.333-1.757-1.333-1.757-1.089-.745.084-.73.084-.73 1.205.084 1.84 1.237 1.84 1.237 1.07 1.835 2.809 1.305 3.495.998.108-.775.418-1.305.762-1.605-2.665-.303-5.466-1.332-5.466-5.931 0-1.31.468-2.381 1.235-3.221-.123-.303-.535-1.523.117-3.176 0 0 1.008-.322 3.301 1.23a11.52 11.52 0 0 1 6.004 0c2.292-1.552 3.3-1.23 3.3-1.23.653 1.653.241 2.873.118 3.176.77.84 1.234 1.911 1.234 3.221 0 4.61-2.807 5.625-5.479 5.921.43.37.823 1.096.823 2.21 0 1.595-.015 2.882-.015 3.273 0 .321.218.694.825.576C20.565 22.092 24 17.592 24 12.297c0-6.627-5.373-12-12-12"
    />
</svg>
