<svg viewBox="0 0 24 24" xmlns="http://www.w3.org/2000/svg" aria-hidden="true">
    <path
        fill="currentColor"
        d="M20.447 20.452h-3.554V14.77c0-1.356-.027-3.106-1.892-3.106-1.894 0-2.185 1.48-2.185 3.007v5.781H9.262V9h3.414v1.561h.049c.476-.9 1.637-1.848 3.367-1.848 3.599 0 4.266 2.37 4.266 5.456v6.283zM5.337 7.433a2.062 2.062 0 11.001-4.124 2.062 2.062 0 01-.001 4.124zM6.813 20.452H3.861V9h2.952v11.452zM22.225 0H1.771C.792 0 0 .774 0 1.729v20.542C0 23.227.792 24 1.771 24h20.451c.98 0 1.778-.773 1.778-1.729V1.729C24 .774 23.205 0 22.225 0z"
    />
</svg>
